<?xml version="1.0" encoding="utf-8"?>
<!-- Generator: Adobe Illustrator 23.0.5, SVG Export Plug-In . SVG Version: 6.00 Build 0)  -->
<svg version="1.1" id="Layer_1" xmlns="http://www.w3.org/2000/svg" xmlns:xlink="http://www.w3.org/1999/xlink" x="0px" y="0px"
	 width="800px" height="800px" viewBox="0 0 800 800" style="enable-background:new 0 0 800 800;" xml:space="preserve">
<style type="text/css">
	.st0{fill:#FFFFFF;}
</style>
<path class="st0" d="M220.7,548v52h-38.6V457.2h46.8c38.8,0,58.2,14.1,58.2,42.2c0,16.5-8.1,29.3-24.2,38.4l41.6,62.2h-43.8
	l-30.3-52H220.7z M220.7,519h7.2c13.5,0,20.2-6,20.2-17.9c0-9.8-6.6-14.7-19.8-14.7h-7.6V519z"/>
<path class="st0" d="M355.4,600h-38V457.2h84.4v31h-46.4v27.2h42.8v31h-42.8V600z"/>
<path class="st0" d="M425.3,600V457.2H464V600H425.3z"/>
<path class="st0" d="M616.2,525.6c0,23.8-6.6,42.2-19.7,55.1c-13.1,12.9-31.5,19.3-55.3,19.3H495V457.2h49.4
	c22.9,0,40.6,5.9,53,17.6C609.9,486.5,616.2,503.4,616.2,525.6z M576.1,527c0-13.1-2.6-22.8-7.8-29.1c-5.1-6.3-13-9.5-23.5-9.5
	h-11.2v80h8.6c11.7,0,20.3-3.4,25.8-10.2C573.4,551.4,576.1,541,576.1,527z"/>
<path class="st0" d="M566.7,300c0,36.8-29.8,66.7-66.7,66.7c-36.8,0-66.7-29.8-66.7-66.7c0-36.8,29.8-66.7,66.7-66.7
	C536.8,233.3,566.7,263.2,566.7,300z"/>
<path class="st0" d="M335.3,133.3L300,66.7H133.3c-36.8,0-66.7,29.8-66.7,66.7v533.3c0,36.8,29.8,66.7,66.7,66.7h533.3
	c36.8,0,66.7-29.8,66.7-66.7V500l-66.7-35.3v202H133.3V133.3H335.3z"/>
<path class="st0" d="M731.6,432.3c22.3-39,35.1-84.2,35.1-132.3c0-147.3-119.4-266.7-266.7-266.7c-48.2,0-93.3,12.8-132.3,35.1
	l33.1,57.9C430,109.6,463.9,100,500,100c110.5,0,200,89.5,200,200c0,36.1-9.6,70-26.3,99.2L731.6,432.3z"/>
<path class="st0" d="M644.7,382.7c14-24.4,21.9-52.6,21.9-82.7c0-92-74.6-166.7-166.7-166.7c-30.1,0-58.3,8-82.7,21.9l33.1,57.9
	C465,204.8,481.9,200,500,200c55.2,0,100,44.8,100,100c0,18.1-4.8,35-13.2,49.6L644.7,382.7z"/>
</svg>
